<svg width="483" height="374" viewBox="0 0 483 374" fill="none" xmlns="http://www.w3.org/2000/svg">
<path d="M183.513 0V50.6337H217.087L183.513 0Z" fill="#FF7F2A"/>
<path d="M235.707 0V50.6337H202.14L235.707 0Z" fill="#FF7F2A"/>
<path d="M214.54 39.1472C194.725 39.1231 164.463 54.5627 150.331 98.6759C139.776 143.844 150.274 187.318 200.142 207.729C230.018 216.582 262.126 218.493 303.41 191.868C325.19 177.151 342.963 153.359 329.311 147.026C321.752 144.338 318.51 152.817 313.643 157.096C315.198 151.202 318.68 145.133 311.728 140.011C303.379 134.352 296.774 144.874 296.698 148.249C294.973 160.121 290.997 165.954 275.278 167.768C255.287 167.521 240.908 159.669 239.183 134.702C241.932 108.589 258.864 96.0363 259.661 82.0551C260.741 62.9876 242.134 40.2862 214.54 39.1472Z" fill="#B588C1"/>
<path d="M200.142 152.359C207.657 164.514 217.858 166.738 228.754 166.395C237.9 166.304 245.503 167.648 237.868 183.172C244.1 175.977 250.692 170.414 259.452 174.476C268.813 179.58 264.458 193.706 258.649 198.419C246.211 210.912 223.906 208.838 212.132 198.117C200.654 185.613 198.467 169.715 200.142 152.359Z" fill="#74439E"/>
<path d="M197.898 62.8008C223.224 63.9941 243.6 66.2901 219.526 78.584C258.694 67.64 224.861 60.8905 197.898 62.8008Z" fill="#74439E"/>
<path d="M210.285 210.418L203.466 257.225L212.738 257.918L210.285 210.418Z" fill="black" stroke="black" stroke-width="0.707916"/>
<path d="M233.867 213.575L235.485 259.111L244.283 258.653L233.867 213.575Z" fill="black" stroke="black" stroke-width="0.708622"/>
<path d="M488.793 222.283V274.345C434.532 241.616 387.129 241.236 339.209 261.105C313.257 269.078 293.013 276.382 250.629 275.96C213.566 275.255 186.382 262.552 142.411 265.45C110.114 268.451 76.528 271.272 60.2783 307.267C60.449 298.776 59.7284 283.945 83.335 267.668C92.3162 261.395 112.845 254.211 160.361 251.999C235.245 251.807 232.325 272.049 329.652 239.079C387.743 215.329 442.382 203.993 488.786 222.283H488.793Z" fill="#4B3C34"/>
<path d="M488.792 222.284V274.346C434.532 241.616 387.129 241.237 339.208 261.106C313.257 269.079 293.013 276.383 250.629 275.961C213.566 275.256 186.382 262.552 142.411 265.451C110.114 268.452 76.528 271.272 60.2783 307.268C60.449 298.777 59.7285 283.946 83.335 267.668C92.3162 261.395 112.845 254.211 160.361 252C235.245 251.807 232.325 272.05 329.652 239.079C387.742 215.329 442.382 203.994 488.786 222.284H488.792Z" stroke="#4B3C34" stroke-width="0.705096"/>
<path d="M439.052 212.569C451.452 201.794 465.484 194.852 471.848 169.975C475.918 153.432 461.704 148.816 452.217 161.749C437.958 185.42 440.821 197.413 439.052 212.569Z" fill="#3C7040" stroke="#3C7040" stroke-width="0.705096"/>
<path d="M333.899 263.625C346.294 274.406 360.331 281.348 366.696 306.225C370.766 322.762 356.552 327.384 347.065 314.451C332.806 290.78 335.669 278.787 333.899 263.625Z" fill="#3C7040" stroke="#3C7040" stroke-width="0.705096"/>
<path d="M437.717 212.376C421.095 203.325 402.936 198.353 391.945 174.308C384.841 158.302 401.748 151.654 415.065 163.279C435.619 184.992 433.609 197.431 437.717 212.376Z" fill="#3C7040" stroke="#3C7040" stroke-width="0.789002"/>
<path d="M62.0039 308.751C78.7592 308.003 93.8332 303.447 116.77 316.742C131.907 325.691 125.277 338.551 108.983 335.803C81.3568 328.686 74.4929 318.272 62.0039 308.751Z" fill="#3C7040" stroke="#3C7040" stroke-width="0.705096"/>
<path d="M59.8616 309.335C66.6054 323.985 76.4778 335.767 71.7123 360.969C68.4004 377.656 51.9169 376.379 48.7504 360.885C44.3893 334.875 54.4324 324.112 59.8616 309.335Z" fill="#3C7040" stroke="#3C7040" stroke-width="0.705096"/>
<path d="M58.3 308.437C50.368 318.417 46.9929 328.234 34.1752 337.141C21.8379 343.511 12.332 335.893 19.8217 327.438C32.3865 311.745 44.6417 309.474 58.3 308.437Z" fill="#3C7040" stroke="#3C7040" stroke-width="0.519656"/>
<path d="M7.13695 107.577C6.25842 107.547 5.41781 107.354 4.62145 107.011C4.28015 106.836 3.89461 106.751 3.54067 106.577C2.11226 105.938 1.05676 104.937 0.380486 103.575C0.323601 103.473 0.28568 103.365 0.247758 103.256C0.0707866 102.738 -0.0113773 102.207 0.00126423 101.659C0.0455072 101.376 0.11503 101.099 0.209836 100.821C0.285681 100.568 0.380486 100.315 0.481612 100.068C0.538495 99.9355 0.608019 99.815 0.690184 99.7005C0.778668 99.5498 0.898755 99.3992 0.987241 99.2425C1.11365 99.0135 1.2843 98.8267 1.50551 98.682C1.78993 98.447 2.03642 98.1818 2.25763 97.8926L2.80118 97.3382C2.86439 97.2839 2.92127 97.2237 2.97183 97.1634C3.37002 96.6632 3.84404 96.2534 4.41288 95.928C4.72257 95.7412 5.05755 95.5905 5.41149 95.4881C6.80829 95.018 8.22406 94.9577 9.6651 95.3012C9.83575 95.3012 9.97479 95.4097 10.1581 95.3012C10.215 95.259 10.2719 95.253 10.3414 95.2832C10.4046 95.3193 10.4362 95.3675 10.4299 95.4338C10.4299 95.5845 10.5563 95.6206 10.6637 95.6688C11.1883 95.8918 11.675 96.169 12.13 96.5005C12.3196 96.6451 12.5156 96.8199 12.6989 96.9826C13.5584 97.7058 14.1146 98.5977 14.3738 99.6583C14.4686 100.11 14.4939 100.562 14.4496 101.02C14.3738 101.671 14.1778 102.256 14.0325 102.961C14.0198 103.021 14.0009 103.075 13.9693 103.13C13.5711 103.817 13.0907 104.443 12.5282 105.01C12.1553 105.341 11.8014 105.703 11.4411 106.046L11.2958 106.173C10.4235 106.854 9.43756 107.306 8.3315 107.529C7.91436 107.505 7.48457 107.529 7.13695 107.577Z" fill="#F8BA34"/>
</svg>
