<svg width="32" height="42" viewBox="0 0 32 42" fill="none" xmlns="http://www.w3.org/2000/svg">
<path d="M9.33215 0.041242C11.479 -0.252508 13.2832 1.06103 14.1374 2.76833L16.2384 6.96937C17.404 9.30062 16.7342 12.036 14.9676 13.7569C13.9238 14.7725 12.8749 15.9329 12.2665 16.9569C12.2262 17.0298 12.2136 17.1149 12.2311 17.1964C12.7936 20.2444 14.8592 23.2558 16.7019 25.4152C16.7946 25.5182 16.9156 25.5915 17.0497 25.6262C17.1838 25.6608 17.3252 25.6552 17.4561 25.61L21.5967 24.3162C22.7121 23.9676 23.9098 23.9854 25.0143 24.3671C26.1188 24.7488 27.072 25.4742 27.7342 26.4371L30.7311 30.7954C31.5436 31.9787 31.9551 33.5829 31.3321 35.1256C30.7759 36.5037 29.6999 38.4912 27.7426 39.8131C25.7113 41.1839 22.929 41.7048 19.2884 40.4569C15.2207 39.061 11.378 35.561 8.19152 31.085C4.98632 26.5808 2.34777 20.9548 0.747773 15.0881C-0.763685 9.54853 0.148815 5.81937 2.29673 3.41833C4.36861 1.10166 7.33736 0.3152 9.33215 0.041242ZM11.8082 3.93291C11.3321 2.98187 10.4832 2.51208 9.68631 2.62145C7.91444 2.8652 5.69569 3.52457 4.2384 5.15478C2.85715 6.69957 1.9009 9.42041 3.25923 14.4027C4.78527 19.9944 7.29777 25.3381 10.3134 29.5746C13.3478 33.8381 16.7957 36.8485 20.1332 37.9933C23.1072 39.0131 25.0186 38.5089 26.2853 37.6548C27.6249 36.7496 28.4488 35.311 28.9176 34.1506C29.1322 33.6194 29.0394 32.9319 28.5853 32.2715L25.5884 27.9131C25.2416 27.4087 24.7424 27.0287 24.1639 26.8286C23.5854 26.6286 22.9581 26.6192 22.3738 26.8017L18.2332 28.0954C16.9957 28.4819 15.6019 28.1371 14.7217 27.1058C12.804 24.8589 10.3603 21.4131 9.66965 17.6683C9.53764 16.9665 9.66497 16.2406 10.028 15.6256C10.8176 14.2985 12.0676 12.9454 13.1499 11.8912C14.2071 10.8621 14.5071 9.33083 13.9092 8.13395L11.8082 3.93395V3.93291Z" fill="white"/>
</svg>
