<svg width="40" height="33" viewBox="0 0 40 33" fill="none" xmlns="http://www.w3.org/2000/svg">
<path d="M5.80357 1.24557e-08H33.4821C34.9645 -9.70477e-05 36.3908 0.567061 37.4683 1.58513C38.5458 2.6032 39.1929 3.99499 39.2768 5.475L39.2857 5.80357V26.3393C39.2858 27.8217 38.7187 29.2479 37.7006 30.3254C36.6825 31.4029 35.2907 32.05 33.8107 32.1339L33.4821 32.1429H5.80357C4.32118 32.143 2.89495 31.5758 1.81745 30.5577C0.739941 29.5397 0.0928548 28.1479 0.00892879 26.6679L1.24557e-08 26.3393V5.80357C-9.70477e-05 4.32118 0.567061 2.89495 1.58513 1.81745C2.6032 0.739941 3.99499 0.0928548 5.475 0.00892879L5.80357 1.24557e-08H33.4821H5.80357ZM36.6071 10.5446L20.2607 19.0446C20.1024 19.1269 19.9292 19.1767 19.7513 19.1912C19.5735 19.2056 19.3945 19.1843 19.225 19.1286L19.025 19.0446L2.67857 10.5446V26.3393C2.6786 27.1236 2.97352 27.8791 3.50479 28.4561C4.03605 29.033 4.76482 29.389 5.54643 29.4536L5.80357 29.4643H33.4821C34.2667 29.4642 35.0225 29.1691 35.5995 28.6374C36.1764 28.1058 36.5323 27.3766 36.5964 26.5946L36.6071 26.3393V10.5446ZM33.4821 2.67857H5.80357C5.0193 2.6786 4.26372 2.97352 3.6868 3.50479C3.10989 4.03605 2.75382 4.76482 2.68929 5.54643L2.67857 5.80357V7.525L19.6429 16.3464L36.6071 7.525V5.80357C36.6071 5.01902 36.3119 4.2632 35.7803 3.68624C35.2486 3.10928 34.5194 2.7534 33.7375 2.68929L33.4821 2.67857Z" fill="white"/>
</svg>
