<svg width="108" height="180" viewBox="0 0 108 180" fill="none" xmlns="http://www.w3.org/2000/svg">
<g opacity="0.5">
<mask id="path-1-outside-1_1811_9669" maskUnits="userSpaceOnUse" x="0" y="-0.399994" width="108" height="180" fill="black">
<rect fill="white" y="-0.399994" width="108" height="180"/>
<path d="M94.6 146.6H15.6C13.8667 146.6 13 145.8 13 144.2V134C13 132.4 13.8667 131.6 15.6 131.6H48V21.8L20.4 41.6C19.0667 42.5333 17.9333 42.3333 17 41L11.4 32.8C11 32.2667 10.8 31.7333 10.8 31.2C10.8 30.6667 11.2 30.0667 12 29.4L46.8 4.4C48.1333 3.46666 49.3333 3 50.4 3H63C64.6 3 65.4 3.8 65.4 5.4V131.6H94.6C96.2 131.6 97 132.4 97 134V144.2C97 145.8 96.2 146.6 94.6 146.6Z"/>
<path d="M3 166.6H104.6V176.6H3V166.6Z"/>
</mask>
<path d="M94.6 146.6H15.6C13.8667 146.6 13 145.8 13 144.2V134C13 132.4 13.8667 131.6 15.6 131.6H48V21.8L20.4 41.6C19.0667 42.5333 17.9333 42.3333 17 41L11.4 32.8C11 32.2667 10.8 31.7333 10.8 31.2C10.8 30.6667 11.2 30.0667 12 29.4L46.8 4.4C48.1333 3.46666 49.3333 3 50.4 3H63C64.6 3 65.4 3.8 65.4 5.4V131.6H94.6C96.2 131.6 97 132.4 97 134V144.2C97 145.8 96.2 146.6 94.6 146.6Z" fill="white"/>
<path d="M3 166.6H104.6V176.6H3V166.6Z" fill="white"/>
<path d="M48 131.6V134.6H51V131.6H48ZM48 21.8H51V15.9557L46.2513 19.3624L48 21.8ZM20.4 41.6L22.1204 44.0577L22.1346 44.0477L22.1487 44.0376L20.4 41.6ZM17 41L14.5226 42.6919L14.5324 42.7062L14.5423 42.7204L17 41ZM11.4 32.8L13.8774 31.1081L13.8399 31.0532L13.8 31L11.4 32.8ZM12 29.4L10.2497 26.9635L10.1622 27.0264L10.0794 27.0953L12 29.4ZM46.8 4.4L45.0796 1.94231L45.0646 1.95284L45.0497 1.96354L46.8 4.4ZM65.4 131.6H62.4V134.6H65.4V131.6ZM94.6 146.6V143.6H15.6V146.6V149.6H94.6V146.6ZM15.6 146.6V143.6C15.3879 143.6 15.318 143.574 15.3448 143.583C15.3831 143.594 15.5247 143.648 15.6848 143.796C15.8501 143.948 15.9427 144.116 15.9842 144.231C16.0195 144.329 16 144.337 16 144.2H13H10C10 145.527 10.3705 147.056 11.6152 148.204C12.8144 149.311 14.3278 149.6 15.6 149.6V146.6ZM13 144.2H16V134H13H10V144.2H13ZM13 134H16C16 133.863 16.0195 133.871 15.9842 133.969C15.9427 134.084 15.8501 134.252 15.6848 134.404C15.5247 134.552 15.3831 134.606 15.3448 134.617C15.318 134.626 15.3879 134.6 15.6 134.6V131.6V128.6C14.3278 128.6 12.8144 128.889 11.6152 129.996C10.3705 131.145 10 132.673 10 134H13ZM15.6 131.6V134.6H48V131.6V128.6H15.6V131.6ZM48 131.6H51V21.8H48H45V131.6H48ZM48 21.8L46.2513 19.3624L18.6513 39.1624L20.4 41.6L22.1487 44.0376L49.7487 24.2376L48 21.8ZM20.4 41.6L18.6796 39.1423C18.5437 39.2374 18.5124 39.2327 18.5826 39.2119C18.6674 39.1867 18.8443 39.1556 19.0714 39.1956C19.2984 39.2357 19.454 39.3255 19.525 39.3782C19.5838 39.4218 19.5528 39.4155 19.4577 39.2796L17 41L14.5423 42.7204C15.2742 43.7659 16.4021 44.8173 18.0287 45.1044C19.6552 45.3914 21.0749 44.7896 22.1204 44.0577L20.4 41.6ZM17 41L19.4774 39.3081L13.8774 31.1081L11.4 32.8L8.9226 34.4919L14.5226 42.6919L17 41ZM11.4 32.8L13.8 31C13.7428 30.9237 13.7435 30.9053 13.759 30.9466C13.7766 30.9937 13.8 31.0831 13.8 31.2H10.8H7.8C7.8 32.5298 8.30937 33.6792 9 34.6L11.4 32.8ZM10.8 31.2H13.8C13.8 31.7007 13.6119 31.9905 13.5962 32.0141C13.5844 32.0317 13.5967 32.0101 13.6529 31.9507C13.7082 31.8923 13.7943 31.8099 13.9206 31.7047L12 29.4L10.0794 27.0953C9.18378 27.8417 7.8 29.2222 7.8 31.2H10.8ZM12 29.4L13.7503 31.8365L48.5503 6.83646L46.8 4.4L45.0497 1.96354L10.2497 26.9635L12 29.4ZM46.8 4.4L48.5204 6.8577C49.5979 6.10347 50.1949 5.99999 50.4 5.99999V2.99999V-7.62939e-06C48.4717 -7.62939e-06 46.6688 0.829865 45.0796 1.94231L46.8 4.4ZM50.4 2.99999V5.99999H63V2.99999V-7.62939e-06H50.4V2.99999ZM63 2.99999V5.99999C63.3376 5.99999 63.0397 6.08235 62.6787 5.72131C62.3176 5.36028 62.4 5.06243 62.4 5.4H65.4H68.4C68.4 4.13757 68.0824 2.63972 66.9213 1.47868C65.7603 0.317635 64.2624 -7.62939e-06 63 -7.62939e-06V2.99999ZM65.4 5.4H62.4V131.6H65.4H68.4V5.4H65.4ZM65.4 131.6V134.6H94.6V131.6V128.6H65.4V131.6ZM94.6 131.6V134.6C94.9376 134.6 94.6397 134.682 94.2787 134.321C93.9176 133.96 94 133.662 94 134H97H100C100 132.738 99.6824 131.24 98.5213 130.079C97.3603 128.918 95.8624 128.6 94.6 128.6V131.6ZM97 134H94V144.2H97H100V134H97ZM97 144.2H94C94 144.538 93.9176 144.24 94.2787 143.879C94.6397 143.518 94.9376 143.6 94.6 143.6V146.6V149.6C95.8624 149.6 97.3603 149.282 98.5213 148.121C99.6824 146.96 100 145.462 100 144.2H97Z" fill="#EF3198" mask="url(#path-1-outside-1_1811_9669)"/>
<path d="M3 166.6V163.6H0V166.6H3ZM104.6 166.6H107.6V163.6H104.6V166.6ZM104.6 176.6V179.6H107.6V176.6H104.6ZM3 176.6H0V179.6H3V176.6ZM3 166.6V169.6H104.6V166.6V163.6H3V166.6ZM104.6 166.6H101.6V176.6H104.6H107.6V166.6H104.6ZM104.6 176.6V173.6H3V176.6V179.6H104.6V176.6ZM3 176.6H6V166.6H3H0V176.6H3Z" fill="#EF3198" mask="url(#path-1-outside-1_1811_9669)"/>
</g>
</svg>
