<svg width="128" height="180" viewBox="0 0 128 180" fill="none" xmlns="http://www.w3.org/2000/svg">
<g opacity="0.5">
<mask id="path-1-outside-1_1811_9701" maskUnits="userSpaceOnUse" x="0" y="-0.399994" width="128" height="180" fill="black">
<rect fill="white" y="-0.399994" width="128" height="180"/>
<path d="M114.4 146.6H56.8C55.2 146.6 54.4 145.8 54.4 144.2V134C54.4 132.4 55.2 131.6 56.8 131.6H79.8V101.6H13.2C11.6 101.6 10.8 100.733 10.8 99V91C10.8 89.1333 11.6667 87 13.4 84.6L75.8 7.6C78.2 4.53333 80.6667 3 83.2 3H94.6C96.3333 3 97.2 3.8 97.2 5.4V87.6H113C114.733 87.6 115.6 88.4667 115.6 90.2V99C115.6 100.733 114.733 101.6 113 101.6H97.2V131.6H114.4C116.133 131.6 117 132.4 117 134V144.2C117 145.8 116.133 146.6 114.4 146.6ZM79.8 87.6V24.6L28.8 87.6H79.8Z"/>
<path d="M3 166.6H124.6V176.6H3V166.6Z"/>
</mask>
<path d="M114.4 146.6H56.8C55.2 146.6 54.4 145.8 54.4 144.2V134C54.4 132.4 55.2 131.6 56.8 131.6H79.8V101.6H13.2C11.6 101.6 10.8 100.733 10.8 99V91C10.8 89.1333 11.6667 87 13.4 84.6L75.8 7.6C78.2 4.53333 80.6667 3 83.2 3H94.6C96.3333 3 97.2 3.8 97.2 5.4V87.6H113C114.733 87.6 115.6 88.4667 115.6 90.2V99C115.6 100.733 114.733 101.6 113 101.6H97.2V131.6H114.4C116.133 131.6 117 132.4 117 134V144.2C117 145.8 116.133 146.6 114.4 146.6ZM79.8 87.6V24.6L28.8 87.6H79.8Z" fill="white"/>
<path d="M3 166.6H124.6V176.6H3V166.6Z" fill="white"/>
<path d="M79.8 131.6V134.6H82.8V131.6H79.8ZM79.8 101.6H82.8V98.6H79.8V101.6ZM13.4 84.6L11.0693 82.7112L11.0168 82.776L10.968 82.8435L13.4 84.6ZM75.8 7.6L78.1308 9.48881L78.1468 9.469L78.1625 9.44892L75.8 7.6ZM97.2 87.6H94.2V90.6H97.2V87.6ZM97.2 101.6V98.6H94.2V101.6H97.2ZM97.2 131.6H94.2V134.6H97.2V131.6ZM79.8 87.6V90.6H82.8V87.6H79.8ZM79.8 24.6H82.8V16.1261L77.4683 22.7124L79.8 24.6ZM28.8 87.6L26.4683 85.7124L22.5116 90.6H28.8V87.6ZM114.4 146.6V143.6H56.8V146.6V149.6H114.4V146.6ZM56.8 146.6V143.6C56.4624 143.6 56.7603 143.518 57.1213 143.879C57.4824 144.24 57.4 144.538 57.4 144.2H54.4H51.4C51.4 145.462 51.7176 146.96 52.8787 148.121C54.0397 149.282 55.5376 149.6 56.8 149.6V146.6ZM54.4 144.2H57.4V134H54.4H51.4V144.2H54.4ZM54.4 134H57.4C57.4 133.662 57.4824 133.96 57.1213 134.321C56.7603 134.682 56.4624 134.6 56.8 134.6V131.6V128.6C55.5376 128.6 54.0397 128.918 52.8787 130.079C51.7176 131.24 51.4 132.738 51.4 134H54.4ZM56.8 131.6V134.6H79.8V131.6V128.6H56.8V131.6ZM79.8 131.6H82.8V101.6H79.8H76.8V131.6H79.8ZM79.8 101.6V98.6H13.2V101.6V104.6H79.8V101.6ZM13.2 101.6V98.6C13.0628 98.6 13.0711 98.5805 13.1689 98.6158C13.2836 98.6573 13.4518 98.7499 13.6044 98.9152C13.7522 99.0753 13.8056 99.2169 13.8173 99.2552C13.8256 99.282 13.8 99.2121 13.8 99H10.8H7.8C7.8 100.272 8.08857 101.786 9.19559 102.985C10.3445 104.229 11.8732 104.6 13.2 104.6V101.6ZM10.8 99H13.8V91H10.8H7.8V99H10.8ZM10.8 91H13.8C13.8 90.0364 14.2677 88.5225 15.832 86.3565L13.4 84.6L10.968 82.8435C9.06561 85.4776 7.8 88.2303 7.8 91H10.8ZM13.4 84.6L15.7307 86.4888L78.1308 9.48881L75.8 7.6L73.4693 5.71118L11.0693 82.7112L13.4 84.6ZM75.8 7.6L78.1625 9.44892C80.305 6.7113 81.9976 5.99999 83.2 5.99999V2.99999V-7.62939e-06C79.3357 -7.62939e-06 76.095 2.35535 73.4375 5.75107L75.8 7.6ZM83.2 2.99999V5.99999H94.6V2.99999V-7.62939e-06H83.2V2.99999ZM94.6 2.99999V5.99999C94.8121 5.99999 94.882 6.02555 94.8552 6.01733C94.8169 6.00555 94.6753 5.95219 94.5152 5.80441C94.3499 5.65182 94.2573 5.48363 94.2158 5.36893C94.1805 5.27108 94.2 5.26279 94.2 5.4H97.2H100.2C100.2 4.07316 99.8295 2.54449 98.5848 1.39559C97.3856 0.288567 95.8722 -7.62939e-06 94.6 -7.62939e-06V2.99999ZM97.2 5.4H94.2V87.6H97.2H100.2V5.4H97.2ZM97.2 87.6V90.6H113V87.6V84.6H97.2V87.6ZM113 87.6V90.6C113.192 90.6 113.238 90.6251 113.189 90.6086C113.125 90.5872 112.979 90.5211 112.829 90.3713C112.679 90.2215 112.613 90.0753 112.591 90.0112C112.575 89.9616 112.6 90.0077 112.6 90.2H115.6H118.6C118.6 88.8709 118.266 87.3231 117.071 86.1287C115.877 84.9343 114.329 84.6 113 84.6V87.6ZM115.6 90.2H112.6V99H115.6H118.6V90.2H115.6ZM115.6 99H112.6C112.6 99.1923 112.575 99.2384 112.591 99.1888C112.613 99.1247 112.679 98.9785 112.829 98.8287C112.979 98.6789 113.125 98.6128 113.189 98.5915C113.238 98.5749 113.192 98.6 113 98.6V101.6V104.6C114.329 104.6 115.877 104.266 117.071 103.071C118.266 101.877 118.6 100.329 118.6 99H115.6ZM113 101.6V98.6H97.2V101.6V104.6H113V101.6ZM97.2 101.6H94.2V131.6H97.2H100.2V101.6H97.2ZM97.2 131.6V134.6H114.4V131.6V128.6H97.2V131.6ZM114.4 131.6V134.6C114.612 134.6 114.682 134.626 114.655 134.617C114.617 134.606 114.475 134.552 114.315 134.404C114.15 134.252 114.057 134.084 114.016 133.969C113.981 133.871 114 133.863 114 134H117H120C120 132.673 119.629 131.145 118.385 129.996C117.186 128.889 115.672 128.6 114.4 128.6V131.6ZM117 134H114V144.2H117H120V134H117ZM117 144.2H114C114 144.337 113.981 144.329 114.016 144.231C114.057 144.116 114.15 143.948 114.315 143.796C114.475 143.648 114.617 143.594 114.655 143.583C114.682 143.574 114.612 143.6 114.4 143.6V146.6V149.6C115.672 149.6 117.186 149.311 118.385 148.204C119.629 147.056 120 145.527 120 144.2H117ZM79.8 87.6H82.8V24.6H79.8H76.8V87.6H79.8ZM79.8 24.6L77.4683 22.7124L26.4683 85.7124L28.8 87.6L31.1317 89.4876L82.1317 26.4876L79.8 24.6ZM28.8 87.6V90.6H79.8V87.6V84.6H28.8V87.6Z" fill="#EF3198" mask="url(#path-1-outside-1_1811_9701)"/>
<path d="M3 166.6V163.6H0V166.6H3ZM124.6 166.6H127.6V163.6H124.6V166.6ZM124.6 176.6V179.6H127.6V176.6H124.6ZM3 176.6H0V179.6H3V176.6ZM3 166.6V169.6H124.6V166.6V163.6H3V166.6ZM124.6 166.6H121.6V176.6H124.6H127.6V166.6H124.6ZM124.6 176.6V173.6H3V176.6V179.6H124.6V176.6ZM3 176.6H6V166.6H3H0V176.6H3Z" fill="#EF3198" mask="url(#path-1-outside-1_1811_9701)"/>
</g>
</svg>
