<svg width="58" height="58" viewBox="0 0 58 58" fill="none" xmlns="http://www.w3.org/2000/svg">
<path d="M28.8 0C12.894 0 0 12.894 0 28.8C0 44.706 12.894 57.6 28.8 57.6C44.706 57.6 57.6 44.706 57.6 28.8C57.6 12.894 44.706 0 28.8 0ZM21.75 40.737H15.918V21.969H21.75V40.737ZM18.798 19.665C16.956 19.665 15.765 18.36 15.765 16.746C15.765 15.099 16.992 13.833 18.873 13.833C20.754 13.833 21.906 15.099 21.942 16.746C21.942 18.36 20.754 19.665 18.798 19.665ZM43.05 40.737H37.218V30.336C37.218 27.915 36.372 26.271 34.263 26.271C32.652 26.271 31.695 27.384 31.272 28.455C31.116 28.836 31.077 29.376 31.077 29.913V40.734H25.242V27.954C25.242 25.611 25.167 23.652 25.089 21.966H30.156L30.423 24.573H30.54C31.308 23.349 33.189 21.543 36.336 21.543C40.173 21.543 43.05 24.114 43.05 29.64V40.737Z" fill="white"/>
</svg>
