<svg width="127" height="181" viewBox="0 0 127 181" fill="none" xmlns="http://www.w3.org/2000/svg">
<g opacity="0.5">
<mask id="path-1-outside-1_1811_9693" maskUnits="userSpaceOnUse" x="0" y="-0.199982" width="127" height="181" fill="black">
<rect fill="white" y="-0.199982" width="127" height="181"/>
<path d="M113.2 147.8H13.2C11.4667 147.8 10.6 147 10.6 145.4V139.2C10.6 131.2 12.1333 124 15.2 117.6C18.4 111.2 22.4667 106 27.4 102C32.4667 97.8667 38 94.1333 44 90.8C50 87.4667 56 84.4 62 81.6C68 78.6667 73.5333 75.6667 78.6 72.6C89.8 65.6667 95.4 57.0667 95.4 46.8C95.4 39.0667 92.4 32.5333 86.4 27.2C80.5333 21.7333 72.5333 19 62.4 19C52.2667 19 44.3333 21.7333 38.6 27.2C32.8667 32.6667 30 39.6 30 48C30 49.6 29.1333 50.4 27.4 50.4H14.4C12.8 50.4 12 49.6 12 48C12 35.6 16.3333 25 25 16.2C33.8 7.40001 46.2667 3.00001 62.4 3.00001C78.6667 3.00001 91.2 7.20001 100 15.6C108.933 23.8667 113.4 33.8667 113.4 45.6C113.4 53.6 111.4 60.8 107.4 67.2C103.4 73.6 98.4 78.7333 92.4 82.6C86.4 86.3334 79.8667 90.1333 72.8 94C65.7333 97.7333 59.1333 101.2 53 104.4C46.8667 107.467 41.6 111.467 37.2 116.4C32.9333 121.333 30.6 126.8 30.2 132.8H98.2V118.4C98.2 116.8 99 116 100.6 116H113.2C114.933 116 115.8 116.8 115.8 118.4V145.4C115.8 147 114.933 147.8 113.2 147.8Z"/>
<path d="M3 167.8H123.4V177.8H3V167.8Z"/>
</mask>
<path d="M113.2 147.8H13.2C11.4667 147.8 10.6 147 10.6 145.4V139.2C10.6 131.2 12.1333 124 15.2 117.6C18.4 111.2 22.4667 106 27.4 102C32.4667 97.8667 38 94.1333 44 90.8C50 87.4667 56 84.4 62 81.6C68 78.6667 73.5333 75.6667 78.6 72.6C89.8 65.6667 95.4 57.0667 95.4 46.8C95.4 39.0667 92.4 32.5333 86.4 27.2C80.5333 21.7333 72.5333 19 62.4 19C52.2667 19 44.3333 21.7333 38.6 27.2C32.8667 32.6667 30 39.6 30 48C30 49.6 29.1333 50.4 27.4 50.4H14.4C12.8 50.4 12 49.6 12 48C12 35.6 16.3333 25 25 16.2C33.8 7.40001 46.2667 3.00001 62.4 3.00001C78.6667 3.00001 91.2 7.20001 100 15.6C108.933 23.8667 113.4 33.8667 113.4 45.6C113.4 53.6 111.4 60.8 107.4 67.2C103.4 73.6 98.4 78.7333 92.4 82.6C86.4 86.3334 79.8667 90.1333 72.8 94C65.7333 97.7333 59.1333 101.2 53 104.4C46.8667 107.467 41.6 111.467 37.2 116.4C32.9333 121.333 30.6 126.8 30.2 132.8H98.2V118.4C98.2 116.8 99 116 100.6 116H113.2C114.933 116 115.8 116.8 115.8 118.4V145.4C115.8 147 114.933 147.8 113.2 147.8Z" fill="white"/>
<path d="M3 167.8H123.4V177.8H3V167.8Z" fill="white"/>
<path d="M15.2 117.6L12.5167 116.258L12.5054 116.281L12.4946 116.304L15.2 117.6ZM27.4 102L29.2894 104.33L29.2964 104.325L27.4 102ZM44 90.8L42.5431 88.1775H42.5431L44 90.8ZM62 81.6L63.2687 84.3186L63.2933 84.3071L63.3176 84.2952L62 81.6ZM78.6 72.6L80.1534 75.1665L80.1663 75.1587L80.1791 75.1508L78.6 72.6ZM86.4 27.2L84.3548 29.3948L84.3806 29.4188L84.4069 29.4422L86.4 27.2ZM38.6 27.2L36.5298 25.0288L38.6 27.2ZM25 16.2L22.8787 14.0787L22.8706 14.0868L22.8625 14.0949L25 16.2ZM100 15.6L97.9286 17.7701L97.9454 17.7861L97.9624 17.8019L100 15.6ZM107.4 67.2L104.856 65.61L107.4 67.2ZM92.4 82.6L93.9849 85.1472L94.0051 85.1346L94.0251 85.1217L92.4 82.6ZM72.8 94L74.2014 96.6526L74.2208 96.6423L74.24 96.6318L72.8 94ZM53 104.4L54.3416 107.083L54.3648 107.072L54.3877 107.06L53 104.4ZM37.2 116.4L34.9611 114.403L34.9459 114.42L34.9309 114.438L37.2 116.4ZM30.2 132.8L27.2066 132.6L26.9933 135.8H30.2V132.8ZM98.2 132.8V135.8H101.2V132.8H98.2ZM113.2 147.8V144.8H13.2V147.8V150.8H113.2V147.8ZM13.2 147.8V144.8C12.9879 144.8 12.918 144.774 12.9448 144.783C12.9831 144.794 13.1247 144.848 13.2848 144.996C13.4501 145.148 13.5427 145.316 13.5842 145.431C13.6195 145.529 13.6 145.537 13.6 145.4H10.6H7.6C7.6 146.727 7.97052 148.256 9.21516 149.404C10.4144 150.511 11.9278 150.8 13.2 150.8V147.8ZM10.6 145.4H13.6V139.2H10.6H7.6V145.4H10.6ZM10.6 139.2H13.6C13.6 131.591 15.0561 124.843 17.9054 118.896L15.2 117.6L12.4946 116.304C9.21062 123.157 7.6 130.809 7.6 139.2H10.6ZM15.2 117.6L17.8833 118.942C20.9164 112.875 24.7278 108.029 29.2894 104.33L27.4 102L25.5106 99.6698C20.2055 103.971 15.8836 109.525 12.5167 116.258L15.2 117.6ZM27.4 102L29.2964 104.325C34.219 100.309 39.6043 96.674 45.4569 93.4225L44 90.8L42.5431 88.1775C36.3957 91.5927 30.7143 95.4246 25.5036 99.6754L27.4 102ZM44 90.8L45.4569 93.4225C51.3976 90.1221 57.3348 87.0877 63.2687 84.3186L62 81.6L60.7313 78.8815C54.6652 81.7123 48.6024 84.8112 42.5431 88.1775L44 90.8ZM62 81.6L63.3176 84.2952C69.3881 81.3274 75.0012 78.285 80.1534 75.1665L78.6 72.6L77.0466 70.0335C72.0655 73.0484 66.6119 76.006 60.6824 78.9049L62 81.6ZM78.6 72.6L80.1791 75.1508C91.9776 67.8469 98.4 58.4016 98.4 46.8H95.4H92.4C92.4 55.7318 87.6224 63.4864 77.0209 70.0492L78.6 72.6ZM95.4 46.8H98.4C98.4 38.1733 95.0058 30.8358 88.3931 24.9578L86.4 27.2L84.4069 29.4422C89.7942 34.2309 92.4 39.96 92.4 46.8H95.4ZM86.4 27.2L88.4452 25.0052C81.8875 18.8946 73.084 16 62.4 16V19V22C71.9827 22 79.1792 24.5721 84.3548 29.3948L86.4 27.2ZM62.4 19V16C51.7197 16 42.9644 18.8934 36.5298 25.0288L38.6 27.2L40.6702 29.3712C45.7022 24.5733 52.8137 22 62.4 22V19ZM38.6 27.2L36.5298 25.0288C30.1637 31.0987 27 38.835 27 48H30H33C33 40.3651 35.5696 34.2346 40.6702 29.3712L38.6 27.2ZM30 48H27C27 48.1372 26.9805 48.1289 27.0158 48.0311C27.0573 47.9164 27.1499 47.7482 27.3152 47.5956C27.4753 47.4478 27.6169 47.3945 27.6552 47.3827C27.682 47.3745 27.6121 47.4 27.4 47.4V50.4V53.4C28.6722 53.4 30.1856 53.1114 31.3848 52.0044C32.6295 50.8555 33 49.3269 33 48H30ZM27.4 50.4V47.4H14.4V50.4V53.4H27.4V50.4ZM14.4 50.4V47.4C14.0624 47.4 14.3603 47.3177 14.7213 47.6787C15.0824 48.0397 15 48.3376 15 48H12H9C9 49.2625 9.31764 50.7603 10.4787 51.9213C11.6397 53.0824 13.1376 53.4 14.4 53.4V50.4ZM12 48H15C15 36.3842 19.026 26.5414 27.1375 18.3051L25 16.2L22.8625 14.0949C13.6407 23.4587 9 34.8158 9 48H12ZM25 16.2L27.1213 18.3213C35.2058 10.2368 46.8163 6.00001 62.4 6.00001V3.00001V7.62939e-06C45.717 7.62939e-06 32.3942 4.56319 22.8787 14.0787L25 16.2ZM62.4 3.00001V6.00001C78.1617 6.00001 89.8535 10.0621 97.9286 17.7701L100 15.6L102.071 13.4299C92.5465 4.33794 79.1716 7.62939e-06 62.4 7.62939e-06V3.00001ZM100 15.6L97.9624 17.8019C106.308 25.5247 110.4 34.7373 110.4 45.6H113.4H116.4C116.4 32.996 111.559 22.2086 102.038 13.3981L100 15.6ZM113.4 45.6H110.4C110.4 53.073 108.54 59.7159 104.856 65.61L107.4 67.2L109.944 68.79C114.26 61.8842 116.4 54.127 116.4 45.6H113.4ZM107.4 67.2L104.856 65.61C101.076 71.6576 96.3826 76.4644 90.7749 80.0783L92.4 82.6L94.0251 85.1217C100.417 81.0023 105.724 75.5425 109.944 68.79L107.4 67.2ZM92.4 82.6L90.8151 80.0528C84.8686 83.7529 78.3842 87.5248 71.36 91.3682L72.8 94L74.24 96.6318C81.3491 92.7419 87.9314 88.9138 93.9849 85.1472L92.4 82.6ZM72.8 94L71.3986 91.3474C64.3358 95.0787 57.7404 98.543 51.6123 101.74L53 104.4L54.3877 107.06C60.5262 103.857 67.1308 100.388 74.2014 96.6526L72.8 94ZM53 104.4L51.6584 101.717C45.1981 104.947 39.6235 109.176 34.9611 114.403L37.2 116.4L39.4389 118.397C43.5765 113.758 48.5352 109.986 54.3416 107.083L53 104.4ZM37.2 116.4L34.9309 114.438C30.2759 119.82 27.6538 125.894 27.2066 132.6L30.2 132.8L33.1934 133C33.5462 127.706 35.5907 122.847 39.4691 118.362L37.2 116.4ZM30.2 132.8V135.8H98.2V132.8V129.8H30.2V132.8ZM98.2 132.8H101.2V118.4H98.2H95.2V132.8H98.2ZM98.2 118.4H101.2C101.2 118.062 101.282 118.36 100.921 118.721C100.56 119.082 100.262 119 100.6 119V116V113C99.3376 113 97.8397 113.318 96.6787 114.479C95.5176 115.64 95.2 117.138 95.2 118.4H98.2ZM100.6 116V119H113.2V116V113H100.6V116ZM113.2 116V119C113.412 119 113.482 119.026 113.455 119.017C113.417 119.006 113.275 118.952 113.115 118.804C112.95 118.652 112.857 118.484 112.816 118.369C112.781 118.271 112.8 118.263 112.8 118.4H115.8H118.8C118.8 117.073 118.429 115.545 117.185 114.396C115.986 113.289 114.472 113 113.2 113V116ZM115.8 118.4H112.8V145.4H115.8H118.8V118.4H115.8ZM115.8 145.4H112.8C112.8 145.537 112.781 145.529 112.816 145.431C112.857 145.316 112.95 145.148 113.115 144.996C113.275 144.848 113.417 144.794 113.455 144.783C113.482 144.774 113.412 144.8 113.2 144.8V147.8V150.8C114.472 150.8 115.986 150.511 117.185 149.404C118.429 148.256 118.8 146.727 118.8 145.4H115.8Z" fill="#EF3198" mask="url(#path-1-outside-1_1811_9693)"/>
<path d="M3 167.8V164.8H0V167.8H3ZM123.4 167.8H126.4V164.8H123.4V167.8ZM123.4 177.8V180.8H126.4V177.8H123.4ZM3 177.8H0V180.8H3V177.8ZM3 167.8V170.8H123.4V167.8V164.8H3V167.8ZM123.4 167.8H120.4V177.8H123.4H126.4V167.8H123.4ZM123.4 177.8V174.8H3V177.8V180.8H123.4V177.8ZM3 177.8H6V167.8H3H0V177.8H3Z" fill="#EF3198" mask="url(#path-1-outside-1_1811_9693)"/>
</g>
</svg>
