<svg width="124" height="181" viewBox="0 0 124 181" fill="none" xmlns="http://www.w3.org/2000/svg">
<g opacity="0.5">
<mask id="path-1-outside-1_1811_9697" maskUnits="userSpaceOnUse" x="0" y="-0.199989" width="124" height="181" fill="black">
<rect fill="white" y="-0.199989" width="124" height="181"/>
<path d="M84.4 72.2V72.4C89.0667 72.4 94.6 74.7333 101 79.4C104.467 81.9333 107.333 85.7333 109.6 90.8C112 95.7333 113.2 101.467 113.2 108C113.2 120.4 108.333 130.4 98.6 138C88.8667 145.467 76.0667 149.2 60.2 149.2C52.3333 149.2 46.1333 148.467 41.6 147C37.2 145.4 33.6667 143.933 31 142.6C28.3333 141.133 26.1333 139.8 24.4 138.6C22.8 137.4 21.1333 136.067 19.4 134.6C17.1333 132.6 15 130.267 13 127.6L11.6 125.8C10.9333 125.267 10.6 124.733 10.6 124.2C10.6 123.667 10.9333 123.067 11.6 122.4L20.2 114.4C21.2667 113.333 22.4667 113.333 23.8 114.4L27 117.8C32.8667 124.067 38.0667 128.067 42.6 129.8C48.3333 131.933 54.2 133 60.2 133C70.8667 133 79.3333 130.533 85.6 125.6C92 120.667 95.2 114.067 95.2 105.8C95.2 88.8667 83.7333 80.4 60.8 80.4H52.8C51.2 80.4 50.4 79.5333 50.4 77.8V68.8C50.4 67.0667 51.2 66.2 52.8 66.2H59.2C66.2667 66.2 72.2 65.1333 77 63C86.0667 58.7333 90.6 52 90.6 42.8C90.6 36 88.1333 30.3333 83.2 25.8C78.2667 21.2667 71.1333 19 61.8 19C52.6 19 45.6667 21.4 41 26.2C36.4667 30.8667 34.2 36.2 34.2 42.2C34.2 43.8 33.4 44.6 31.8 44.6H19.6C18 44.6 17.2 43.8 17.2 42.2C17.2 30.3333 21.2 20.8667 29.2 13.8C37.2 6.6 48.4667 3 63 3C77.5333 3 88.8 6.93334 96.8 14.8C104.8 22.5333 108.8 31.2 108.8 40.8C108.8 50.4 105.733 58.0667 99.6 63.8C93.4667 69.4 88.4 72.2 84.4 72.2Z"/>
<path d="M3 167.8H121V177.8H3V167.8Z"/>
</mask>
<path d="M84.4 72.2V72.4C89.0667 72.4 94.6 74.7333 101 79.4C104.467 81.9333 107.333 85.7333 109.6 90.8C112 95.7333 113.2 101.467 113.2 108C113.2 120.4 108.333 130.4 98.6 138C88.8667 145.467 76.0667 149.2 60.2 149.2C52.3333 149.2 46.1333 148.467 41.6 147C37.2 145.4 33.6667 143.933 31 142.6C28.3333 141.133 26.1333 139.8 24.4 138.6C22.8 137.4 21.1333 136.067 19.4 134.6C17.1333 132.6 15 130.267 13 127.6L11.6 125.8C10.9333 125.267 10.6 124.733 10.6 124.2C10.6 123.667 10.9333 123.067 11.6 122.4L20.2 114.4C21.2667 113.333 22.4667 113.333 23.8 114.4L27 117.8C32.8667 124.067 38.0667 128.067 42.6 129.8C48.3333 131.933 54.2 133 60.2 133C70.8667 133 79.3333 130.533 85.6 125.6C92 120.667 95.2 114.067 95.2 105.8C95.2 88.8667 83.7333 80.4 60.8 80.4H52.8C51.2 80.4 50.4 79.5333 50.4 77.8V68.8C50.4 67.0667 51.2 66.2 52.8 66.2H59.2C66.2667 66.2 72.2 65.1333 77 63C86.0667 58.7333 90.6 52 90.6 42.8C90.6 36 88.1333 30.3333 83.2 25.8C78.2667 21.2667 71.1333 19 61.8 19C52.6 19 45.6667 21.4 41 26.2C36.4667 30.8667 34.2 36.2 34.2 42.2C34.2 43.8 33.4 44.6 31.8 44.6H19.6C18 44.6 17.2 43.8 17.2 42.2C17.2 30.3333 21.2 20.8667 29.2 13.8C37.2 6.6 48.4667 3 63 3C77.5333 3 88.8 6.93334 96.8 14.8C104.8 22.5333 108.8 31.2 108.8 40.8C108.8 50.4 105.733 58.0667 99.6 63.8C93.4667 69.4 88.4 72.2 84.4 72.2Z" fill="white"/>
<path d="M3 167.8H121V177.8H3V167.8Z" fill="white"/>
<path d="M84.4 72.2V69.2H81.4V72.2H84.4ZM84.4 72.4H81.4V75.4H84.4V72.4ZM101 79.4L102.77 76.9778L102.768 76.976L101 79.4ZM109.6 90.8L106.862 92.0251L106.881 92.0691L106.902 92.1124L109.6 90.8ZM98.6 138L100.426 140.38L100.436 140.372L100.446 140.365L98.6 138ZM41.6 147L40.5748 149.819L40.6253 149.838L40.6765 149.854L41.6 147ZM31 142.6L29.5542 145.229L29.6058 145.257L29.6584 145.283L31 142.6ZM24.4 138.6L22.6 141L22.6456 141.034L22.6924 141.067L24.4 138.6ZM19.4 134.6L17.4151 136.85L17.4384 136.87L17.4622 136.89L19.4 134.6ZM13 127.6L15.4 125.8L15.3842 125.779L15.3681 125.758L13 127.6ZM11.6 125.8L13.9681 123.958L13.7506 123.679L13.4741 123.457L11.6 125.8ZM11.6 122.4L9.55669 120.203L9.517 120.24L9.47868 120.279L11.6 122.4ZM20.2 114.4L22.2433 116.597L22.283 116.56L22.3213 116.521L20.2 114.4ZM23.8 114.4L25.9846 112.344L25.8395 112.19L25.6741 112.057L23.8 114.4ZM27 117.8L29.1901 115.75L29.1846 115.744L27 117.8ZM42.6 129.8L41.5286 132.602L41.5412 132.607L41.5538 132.612L42.6 129.8ZM85.6 125.6L83.7685 123.224L83.7564 123.233L83.7443 123.243L85.6 125.6ZM77 63L78.2184 65.7414L78.248 65.7283L78.2774 65.7145L77 63ZM83.2 25.8L81.1701 28.009L83.2 25.8ZM41 26.2L38.849 24.1088L38.8482 24.1096L41 26.2ZM29.2 13.8L31.1861 16.0484L31.1965 16.0392L31.2069 16.0299L29.2 13.8ZM96.8 14.8L94.6966 16.9391L94.7057 16.9481L94.7149 16.957L96.8 14.8ZM99.6 63.8L101.623 66.0155L101.636 66.0036L101.649 65.9916L99.6 63.8ZM84.4 72.2H81.4V72.4H84.4H87.4V72.2H84.4ZM84.4 72.4V75.4C88.1238 75.4 93.0236 77.2967 99.2325 81.824L101 79.4L102.768 76.976C96.1764 72.1699 90.0096 69.4 84.4 69.4V72.4ZM101 79.4L99.2299 81.8222C102.169 83.9701 104.747 87.2988 106.862 92.0251L109.6 90.8L112.338 89.5749C109.92 84.1679 106.764 79.8966 102.77 76.9778L101 79.4ZM109.6 90.8L106.902 92.1124C109.069 96.566 110.2 101.835 110.2 108H113.2H116.2C116.2 101.098 114.931 94.9007 112.298 89.4876L109.6 90.8ZM113.2 108H110.2C110.2 119.481 105.755 128.607 96.7537 135.635L98.6 138L100.446 140.365C110.911 132.193 116.2 121.319 116.2 108H113.2ZM98.6 138L96.774 135.62C87.7007 142.58 75.6013 146.2 60.2 146.2V149.2V152.2C76.532 152.2 90.0327 148.353 100.426 140.38L98.6 138ZM60.2 149.2V146.2C52.4709 146.2 46.6276 145.474 42.5235 144.146L41.6 147L40.6765 149.854C45.639 151.46 52.1958 152.2 60.2 152.2V149.2ZM41.6 147L42.6252 144.181C38.2799 142.6 34.8649 141.178 32.3416 139.917L31 142.6L29.6584 145.283C32.4685 146.688 36.1202 148.2 40.5748 149.819L41.6 147ZM31 142.6L32.4458 139.971C29.8334 138.535 27.7286 137.256 26.1076 136.133L24.4 138.6L22.6924 141.067C24.5381 142.344 26.8333 143.732 29.5542 145.229L31 142.6ZM24.4 138.6L26.2 136.2C24.6528 135.04 23.0322 133.744 21.3378 132.31L19.4 134.6L17.4622 136.89C19.2345 138.39 20.9472 139.76 22.6 141L24.4 138.6ZM19.4 134.6L21.3849 132.351C19.2863 130.499 17.2897 128.32 15.4 125.8L13 127.6L10.6 129.4C12.7103 132.214 14.9804 134.701 17.4151 136.85L19.4 134.6ZM13 127.6L15.3681 125.758L13.9681 123.958L11.6 125.8L9.23194 127.642L10.6319 129.442L13 127.6ZM11.6 125.8L13.4741 123.457C13.3169 123.332 13.3301 123.308 13.394 123.41C13.4712 123.534 13.6 123.81 13.6 124.2H10.6H7.6C7.6 126.078 8.77404 127.381 9.72591 128.143L11.6 125.8ZM10.6 124.2H13.6C13.6 124.569 13.4841 124.786 13.4725 124.807C13.4653 124.82 13.4752 124.8 13.5171 124.746C13.5587 124.694 13.6241 124.619 13.7213 124.521L11.6 122.4L9.47868 120.279C8.64718 121.11 7.6 122.445 7.6 124.2H10.6ZM11.6 122.4L13.6433 124.597L22.2433 116.597L20.2 114.4L18.1567 112.203L9.55669 120.203L11.6 122.4ZM20.2 114.4L22.3213 116.521C22.3916 116.451 22.3892 116.474 22.3024 116.514C22.2041 116.561 22.061 116.6 21.9 116.6C21.7462 116.6 21.6595 116.564 21.6608 116.565C21.6696 116.569 21.7587 116.609 21.9259 116.743L23.8 114.4L25.6741 112.057C24.6954 111.274 23.4177 110.6 21.9 110.6C20.3119 110.6 19.0221 111.335 18.0787 112.279L20.2 114.4ZM23.8 114.4L21.6154 116.456L24.8154 119.856L27 117.8L29.1846 115.744L25.9846 112.344L23.8 114.4ZM27 117.8L24.8099 119.85C30.7836 126.231 36.3592 130.626 41.5286 132.602L42.6 129.8L43.6714 126.998C39.7741 125.508 34.9497 121.902 29.1901 115.75L27 117.8ZM42.6 129.8L41.5538 132.612C47.6152 134.867 53.8358 136 60.2 136V133V130C54.5642 130 49.0515 129 43.6462 126.988L42.6 129.8ZM60.2 133V136C71.3132 136 80.506 133.428 87.4557 127.957L85.6 125.6L83.7443 123.243C78.1607 127.638 70.4202 130 60.2 130V133ZM85.6 125.6L87.4315 127.976C94.588 122.46 98.2 114.972 98.2 105.8H95.2H92.2C92.2 113.161 89.412 118.874 83.7685 123.224L85.6 125.6ZM95.2 105.8H98.2C98.2 96.5836 95.0308 89.2459 88.382 84.3366C81.9034 79.553 72.5479 77.4 60.8 77.4V80.4V83.4C71.9854 83.4 79.83 85.4804 84.818 89.1634C89.6359 92.7208 92.2 98.0831 92.2 105.8H95.2ZM60.8 80.4V77.4H52.8V80.4V83.4H60.8V80.4ZM52.8 80.4V77.4C52.6628 77.4 52.6711 77.3805 52.7689 77.4158C52.8836 77.4573 53.0518 77.5499 53.2044 77.7152C53.3522 77.8753 53.4056 78.0169 53.4173 78.0552C53.4256 78.082 53.4 78.0121 53.4 77.8H50.4H47.4C47.4 79.0722 47.6886 80.5856 48.7956 81.7848C49.9445 83.0295 51.4732 83.4 52.8 83.4V80.4ZM50.4 77.8H53.4V68.8H50.4H47.4V77.8H50.4ZM50.4 68.8H53.4C53.4 68.5879 53.4256 68.518 53.4173 68.5448C53.4056 68.5831 53.3522 68.7247 53.2044 68.8848C53.0518 69.0501 52.8836 69.1428 52.7689 69.1842C52.6711 69.2195 52.6628 69.2 52.8 69.2V66.2V63.2C51.4732 63.2 49.9445 63.5705 48.7956 64.8152C47.6886 66.0144 47.4 67.5278 47.4 68.8H50.4ZM52.8 66.2V69.2H59.2V66.2V63.2H52.8V66.2ZM59.2 66.2V69.2C66.5493 69.2 72.9267 68.0933 78.2184 65.7414L77 63L75.7816 60.2586C71.4733 62.1734 65.984 63.2 59.2 63.2V66.2ZM77 63L78.2774 65.7145C83.1865 63.4043 87.0558 60.3358 89.6885 56.4255C92.3318 52.4995 93.6 47.9146 93.6 42.8H90.6H87.6C87.6 46.8854 86.6016 50.2672 84.7115 53.0745C82.8109 55.8975 79.8802 58.329 75.7226 60.2855L77 63ZM90.6 42.8H93.6C93.6 35.1746 90.7919 28.7021 85.2299 23.591L83.2 25.8L81.1701 28.009C85.4748 31.9646 87.6 36.8254 87.6 42.8H90.6ZM83.2 25.8L85.2299 23.591C79.5576 18.3787 71.5885 16 61.8 16V19V22C70.6782 22 76.9757 24.1547 81.1701 28.009L83.2 25.8ZM61.8 19V16C52.101 16 44.2658 18.5372 38.849 24.1088L41 26.2L43.151 28.2912C47.0675 24.2628 53.099 22 61.8 22V19ZM41 26.2L38.8482 24.1096C33.8213 29.2844 31.2 35.35 31.2 42.2H34.2H37.2C37.2 37.05 39.112 32.449 43.1518 28.2904L41 26.2ZM34.2 42.2H31.2C31.2 42.5376 31.1176 42.2397 31.4787 41.8787C31.8397 41.5176 32.1376 41.6 31.8 41.6V44.6V47.6C33.0624 47.6 34.5603 47.2824 35.7213 46.1213C36.8824 44.9603 37.2 43.4624 37.2 42.2H34.2ZM31.8 44.6V41.6H19.6V44.6V47.6H31.8V44.6ZM19.6 44.6V41.6C19.2624 41.6 19.5603 41.5176 19.9213 41.8787C20.2824 42.2397 20.2 42.5376 20.2 42.2H17.2H14.2C14.2 43.4624 14.5176 44.9603 15.6787 46.1213C16.8397 47.2824 18.3376 47.6 19.6 47.6V44.6ZM17.2 42.2H20.2C20.2 31.0861 23.9071 22.4782 31.1861 16.0484L29.2 13.8L27.2139 11.5516C18.4929 19.2552 14.2 29.5806 14.2 42.2H17.2ZM29.2 13.8L31.2069 16.0299C38.4877 9.47715 48.9449 6 63 6V3V0C47.9884 0 35.9123 3.72286 27.1931 11.5701L29.2 13.8ZM63 3V6C76.9883 6 87.4093 9.77327 94.6966 16.9391L96.8 14.8L98.9034 12.6609C90.1907 4.09341 78.0783 0 63 0V3ZM96.8 14.8L94.7149 16.957C102.231 24.2228 105.8 32.144 105.8 40.8H108.8H111.8C111.8 30.256 107.369 20.8438 98.8851 12.643L96.8 14.8ZM108.8 40.8H105.8C105.8 49.7001 102.988 56.526 97.5514 61.6084L99.6 63.8L101.649 65.9916C108.478 59.6074 111.8 51.0999 111.8 40.8H108.8ZM99.6 63.8L97.5772 61.5846C94.6161 64.2882 92.0086 66.2255 89.7489 67.4743C87.4741 68.7315 85.7157 69.2 84.4 69.2V72.2V75.2C87.0843 75.2 89.8593 74.2686 92.6511 72.7257C95.4581 71.1745 98.4506 68.9118 101.623 66.0155L99.6 63.8Z" fill="#EF3198" mask="url(#path-1-outside-1_1811_9697)"/>
<path d="M3 167.8V164.8H0V167.8H3ZM121 167.8H124V164.8H121V167.8ZM121 177.8V180.8H124V177.8H121ZM3 177.8H0V180.8H3V177.8ZM3 167.8V170.8H121V167.8V164.8H3V167.8ZM121 167.8H118V177.8H121H124V167.8H121ZM121 177.8V174.8H3V177.8V180.8H121V177.8ZM3 177.8H6V167.8H3H0V177.8H3Z" fill="#EF3198" mask="url(#path-1-outside-1_1811_9697)"/>
</g>
</svg>
