<svg width="53" height="53" viewBox="0 0 53 53" fill="none" xmlns="http://www.w3.org/2000/svg">
<path d="M26.25 0C11.7539 0 0 11.7539 0 26.25C0 40.7461 11.7539 52.5 26.25 52.5C40.7461 52.5 52.5 40.7461 52.5 26.25C52.5 11.7539 40.7461 0 26.25 0ZM38.8652 19.7871C38.8828 20.0625 38.8828 20.3496 38.8828 20.6309C38.8828 29.2324 32.332 39.1406 20.3613 39.1406C16.6699 39.1406 13.248 38.0684 10.3652 36.2227C10.8926 36.2812 11.3965 36.3047 11.9355 36.3047C14.9824 36.3047 17.7832 35.2734 20.0156 33.5273C17.1562 33.4688 14.7539 31.5938 13.9336 29.0156C14.9355 29.1621 15.8379 29.1621 16.8691 28.8984C15.3968 28.5993 14.0735 27.7997 13.1239 26.6354C12.1744 25.4712 11.6571 24.0141 11.6602 22.5117V22.4297C12.5215 22.916 13.5352 23.2148 14.5957 23.2559C13.7042 22.6617 12.973 21.8567 12.4671 20.9123C11.9611 19.9679 11.696 18.9132 11.6953 17.8418C11.6953 16.6289 12.0117 15.5215 12.5801 14.5605C14.2143 16.5723 16.2535 18.2176 18.5652 19.3896C20.8769 20.5617 23.4094 21.2341 25.998 21.3633C25.0781 16.9395 28.3828 13.3594 32.3555 13.3594C34.2305 13.3594 35.918 14.1445 37.1074 15.4102C38.5781 15.1348 39.9844 14.584 41.2383 13.8457C40.752 15.3516 39.7324 16.623 38.3789 17.4258C39.6914 17.2852 40.957 16.9219 42.1289 16.4121C41.2441 17.7129 40.1367 18.8672 38.8652 19.7871Z" fill="white"/>
</svg>
